# xmcd CD database file
#
# Track frame offsets:
#	150
#	31077
#	68885
#	93922
#	119745
#	146302
#	167175
#	187837
#	204562
#	225187
#	240450
#
# Disc length: 3417 seconds
#
# Revision: 0
# Processed by: cddbd v1.5.1PL0 Copyright (c) Steve Scherf et al.
# Submitted via: CDex 1.51
#
DISCID=870d570b
DTITLE=Jim Robinson  - Classic New Orelans Jazz Vol.2
DYEAR=1900
DGENRE=Jazz
TTITLE0=St.Louis Blues
TTITLE1=Sleepy Time Gal
TTITLE2=Peg of My Heart
TTITLE3=Lady be Good
TTITLE4=Washington and Lee Swing
TTITLE5=Smile Darn Ya, Smile
TTITLE6=Shake That Thing
TTITLE7=I will be Somewhere Working for the Lord
TTITLE8=At a Georgia Camp Meeting
TTITLE9=Don´t go way Nobody
TTITLE10=Gasket Street Blues
EXTD=
EXTT0=
EXTT1=
EXTT2=
EXTT3=
EXTT4=
EXTT5=
EXTT6=
EXTT7=
EXTT8=
EXTT9=
EXTT10=
PLAYORDER=
